<svg width="18" height="20" viewBox="0 0 18 20" fill="none" xmlns="http://www.w3.org/2000/svg">
<path d="M9.00004 7.49996C8.50558 7.49996 8.02223 7.64659 7.61111 7.92129C7.19999 8.19599 6.87956 8.58644 6.69034 9.04325C6.50112 9.50007 6.45161 10.0027 6.54807 10.4877C6.64454 10.9726 6.88264 11.4181 7.23227 11.7677C7.5819 12.1174 8.02736 12.3555 8.51231 12.4519C8.99726 12.5484 9.49993 12.4989 9.95674 12.3097C10.4136 12.1204 10.804 11.8 11.0787 11.3889C11.3534 10.9778 11.5 10.4944 11.5 9.99996C11.5 9.33692 11.2366 8.70104 10.7678 8.2322C10.299 7.76336 9.66308 7.49996 9.00004 7.49996ZM9.00004 10.8333C8.83522 10.8333 8.6741 10.7844 8.53706 10.6929C8.40002 10.6013 8.29321 10.4711 8.23014 10.3189C8.16706 10.1666 8.15056 9.99904 8.18271 9.83739C8.21487 9.67574 8.29424 9.52725 8.41078 9.41071C8.52732 9.29416 8.67581 9.2148 8.83746 9.18264C8.99911 9.15049 9.16667 9.16699 9.31894 9.23006C9.47121 9.29314 9.60136 9.39995 9.69293 9.53699C9.78449 9.67403 9.83337 9.83514 9.83337 9.99996C9.83337 10.221 9.74557 10.4329 9.58929 10.5892C9.43301 10.7455 9.22105 10.8333 9.00004 10.8333ZM16.3417 10.675C16.2058 10.5209 16.1316 10.3221 16.1334 10.1166V9.8833C16.1316 9.67787 16.2058 9.47903 16.3417 9.32496L16.875 8.72496C17.2838 8.26613 17.5093 7.67281 17.5084 7.0583C17.5043 6.6202 17.3897 6.19022 17.175 5.8083L16.7084 4.97496C16.4888 4.59468 16.173 4.27893 15.7926 4.0595C15.4123 3.84006 14.9808 3.72468 14.5417 3.72496C14.3738 3.72507 14.2063 3.74182 14.0417 3.77496L13.2584 3.9333H13.0834C12.9405 3.93108 12.8003 3.89388 12.675 3.82496L12.4667 3.69996C12.3055 3.62129 12.174 3.49269 12.0917 3.3333L11.8334 2.57496C11.6605 2.08599 11.3398 1.66288 10.9158 1.36426C10.4917 1.06565 9.98533 0.906298 9.4667 0.908297H8.53337C8.01874 0.903838 7.51527 1.05831 7.0917 1.35064C6.66813 1.64296 6.3451 2.05889 6.1667 2.54163L5.90837 3.3333C5.8437 3.52683 5.71027 3.68992 5.53337 3.79163L5.33337 3.91663C5.20471 3.98443 5.06209 4.02151 4.9167 4.02496H4.75004L4.00004 3.81663C3.83543 3.78349 3.66794 3.76674 3.50004 3.76663C3.05552 3.75727 2.61656 3.86662 2.22838 4.08341C1.84021 4.3002 1.51687 4.61659 1.2917 4.99996L0.825035 5.8333C0.563483 6.28822 0.451711 6.81391 0.505555 7.33589C0.559398 7.85787 0.776127 8.34968 1.12504 8.74163L1.65837 9.34163C1.79426 9.4957 1.86845 9.69454 1.8667 9.89996V10.1333C1.86845 10.3387 1.79426 10.5376 1.65837 10.6916L1.12504 11.2916C0.716261 11.7505 0.4908 12.3438 0.491702 12.9583C0.495722 13.3964 0.610383 13.8264 0.825035 14.2083L1.2917 15.0416C1.51126 15.4219 1.82711 15.7377 2.20746 15.9571C2.58781 16.1765 3.01926 16.2919 3.45837 16.2916C3.62628 16.2915 3.79376 16.2748 3.95837 16.2416L4.7417 16.0833H4.90837C5.05129 16.0855 5.19148 16.1227 5.3167 16.1916L5.52504 16.3166C5.70193 16.4183 5.83537 16.5814 5.90004 16.775L6.1667 17.5C6.33958 17.9889 6.66025 18.412 7.08429 18.7107C7.50832 19.0093 8.01474 19.1686 8.53337 19.1666H9.4667C9.98533 19.1686 10.4917 19.0093 10.9158 18.7107C11.3398 18.412 11.6605 17.9889 11.8334 17.5L12.0917 16.7416C12.1564 16.5481 12.2898 16.385 12.4667 16.2833L12.6667 16.1583C12.7954 16.0905 12.938 16.0534 13.0834 16.05H13.25L14.0417 16.2083C14.2063 16.2414 14.3738 16.2582 14.5417 16.2583C14.9808 16.2586 15.4123 16.1432 15.7926 15.9238C16.173 15.7043 16.4888 15.3886 16.7084 15.0083L17.175 14.175C17.3897 13.793 17.5043 13.3631 17.5084 12.925C17.5093 12.3105 17.2838 11.7171 16.875 11.2583L16.3417 10.675ZM15.1 11.775L15.6334 12.375C15.7693 12.529 15.8435 12.7279 15.8417 12.9333C15.8402 13.08 15.7999 13.2238 15.725 13.35L15.2584 14.1833C15.1857 14.3092 15.0812 14.414 14.9555 14.4871C14.8298 14.5602 14.6871 14.5991 14.5417 14.6H14.375L13.5917 14.4416C12.9907 14.317 12.3648 14.4179 11.8334 14.725L11.6334 14.8416C11.1027 15.1468 10.7024 15.636 10.5084 16.2166L10.2584 16.9833C10.2025 17.1488 10.096 17.2926 9.95389 17.3943C9.81183 17.4959 9.64141 17.5504 9.4667 17.55H8.53337C8.35867 17.5504 8.18824 17.4959 8.04618 17.3943C7.90412 17.2926 7.79761 17.1488 7.7417 16.9833L7.4917 16.2166C7.2977 15.636 6.8974 15.1468 6.3667 14.8416L6.15837 14.725C5.78062 14.5075 5.35257 14.3926 4.9167 14.3916C4.74604 14.3917 4.57578 14.4085 4.40837 14.4416L3.62504 14.6H3.45837C3.31153 14.6005 3.16714 14.5623 3.03982 14.4891C2.91251 14.416 2.80679 14.3105 2.73337 14.1833L2.27504 13.35C2.20014 13.2238 2.15989 13.08 2.15837 12.9333C2.1473 12.7322 2.20947 12.5338 2.33337 12.375L2.8667 11.775C3.27548 11.3161 3.50094 10.7228 3.50004 10.1083V9.87496C3.50094 9.26045 3.27548 8.66713 2.8667 8.2083L2.33337 7.62496C2.19748 7.47089 2.12328 7.27206 2.12504 7.06663C2.13943 6.92253 2.19113 6.78467 2.27504 6.66663L2.7417 5.8333C2.81441 5.70735 2.91882 5.60262 3.04455 5.52953C3.17027 5.45643 3.31294 5.41751 3.45837 5.41663H3.62504L4.40837 5.57496C4.57573 5.60849 4.74602 5.62524 4.9167 5.62496C5.35257 5.62399 5.78062 5.50908 6.15837 5.29163L6.3667 5.17496C6.89117 4.87797 7.29069 4.40151 7.4917 3.8333L7.7417 3.06663C7.79761 2.90111 7.90412 2.75735 8.04618 2.65567C8.18824 2.55398 8.35867 2.49951 8.53337 2.49996H9.4667C9.64141 2.49951 9.81183 2.55398 9.95389 2.65567C10.096 2.75735 10.2025 2.90111 10.2584 3.06663L10.5084 3.8333C10.7024 4.41391 11.1027 4.90316 11.6334 5.2083L11.8417 5.32496C12.2195 5.54242 12.6475 5.65733 13.0834 5.6583C13.2541 5.65857 13.4243 5.64182 13.5917 5.6083L14.375 5.44996H14.5417C14.6885 5.44938 14.8329 5.48761 14.9602 5.56078C15.0876 5.63395 15.1933 5.73946 15.2667 5.86663L15.725 6.69996C15.7999 6.82616 15.8402 6.96989 15.8417 7.11663C15.8435 7.32206 15.7693 7.52089 15.6334 7.67496L15.1 8.27496C14.6913 8.7338 14.4658 9.32712 14.4667 9.94163V10.175C14.4658 10.7895 14.6913 11.3828 15.1 11.8416" fill="#2B3674"/>
</svg>
