<svg width="21" height="20" viewBox="0 0 21 20" fill="none" xmlns="http://www.w3.org/2000/svg">
<path d="M10.5 0.625C8.6458 0.625 6.83324 1.17483 5.29153 2.20497C3.74982 3.23511 2.54821 4.69929 1.83863 6.41234C1.12906 8.1254 0.943406 10.0104 1.30514 11.829C1.66688 13.6475 2.55976 15.318 3.87088 16.6291C5.18199 17.9402 6.85246 18.8331 8.67103 19.1949C10.4896 19.5566 12.3746 19.3709 14.0877 18.6614C15.8007 17.9518 17.2649 16.7502 18.295 15.2085C19.3252 13.6668 19.875 11.8542 19.875 10C19.8722 7.51446 18.8836 5.13152 17.126 3.37398C15.3685 1.61644 12.9855 0.627812 10.5 0.625ZM10.5 18.125C8.89303 18.125 7.32214 17.6485 5.986 16.7557C4.64985 15.8629 3.60844 14.594 2.99348 13.1093C2.37852 11.6247 2.21762 9.99099 2.53112 8.41489C2.84463 6.8388 3.61846 5.39106 4.75476 4.25476C5.89106 3.11846 7.3388 2.34462 8.91489 2.03112C10.491 1.71761 12.1247 1.87852 13.6093 2.49348C15.094 3.10844 16.3629 4.14984 17.2557 5.48599C18.1485 6.82214 18.625 8.39303 18.625 10C18.6225 12.1541 17.7657 14.2193 16.2425 15.7425C14.7193 17.2657 12.6541 18.1225 10.5 18.125Z" fill="white"/>
<path d="M12.375 6.25H8.625C8.12772 6.25 7.65081 6.44754 7.29917 6.79917C6.94754 7.15081 6.75 7.62772 6.75 8.125V11.875C6.75 12.3723 6.94754 12.8492 7.29917 13.2008C7.65081 13.5525 8.12772 13.75 8.625 13.75H12.375C12.8723 13.75 13.3492 13.5525 13.7008 13.2008C14.0525 12.8492 14.25 12.3723 14.25 11.875V8.125C14.25 7.62772 14.0525 7.15081 13.7008 6.79917C13.3492 6.44754 12.8723 6.25 12.375 6.25ZM13 11.875C13 12.0408 12.9342 12.1997 12.8169 12.3169C12.6997 12.4342 12.5408 12.5 12.375 12.5H8.625C8.45924 12.5 8.30027 12.4342 8.18306 12.3169C8.06585 12.1997 8 12.0408 8 11.875V8.125C8 7.95924 8.06585 7.80027 8.18306 7.68306C8.30027 7.56585 8.45924 7.5 8.625 7.5H12.375C12.5408 7.5 12.6997 7.56585 12.8169 7.68306C12.9342 7.80027 13 7.95924 13 8.125V11.875Z" fill="white"/>
</svg>
