<svg width="36" height="36" viewBox="0 0 36 36" fill="none" xmlns="http://www.w3.org/2000/svg">
<g clip-path="url(#clip0_540_12758)">
<path d="M9.6 13.8H9.9C11.055 13.8 12 14.745 12 15.9V26.4C12 27.555 11.055 28.5 9.9 28.5H9.6C8.445 28.5 7.5 27.555 7.5 26.4V15.9C7.5 14.745 8.445 13.8 9.6 13.8ZM18 7.5C19.155 7.5 20.1 8.445 20.1 9.6V26.4C20.1 27.555 19.155 28.5 18 28.5C16.845 28.5 15.9 27.555 15.9 26.4V9.6C15.9 8.445 16.845 7.5 18 7.5ZM26.4 19.5C27.555 19.5 28.5 20.445 28.5 21.6V26.4C28.5 27.555 27.555 28.5 26.4 28.5C25.245 28.5 24.3 27.555 24.3 26.4V21.6C24.3 20.445 25.245 19.5 26.4 19.5Z" fill="#2959E5"/>
</g>
<defs>
<clipPath id="clip0_540_12758">
<rect width="36" height="36" fill="white"/>
</clipPath>
</defs>
</svg>
