<svg width="22" height="22" viewBox="0 0 22 22" fill="none" xmlns="http://www.w3.org/2000/svg">
<path d="M18.3334 11.6967V10.0833C18.3334 8.13841 17.5608 6.27315 16.1855 4.89788C14.8103 3.52262 12.945 2.75 11.0001 2.75C9.05517 2.75 7.18991 3.52262 5.81464 4.89788C4.43937 6.27315 3.66676 8.13841 3.66676 10.0833V11.6967C2.93161 12.1886 2.37405 12.9037 2.07634 13.7367C1.77864 14.5696 1.75656 15.4762 2.01337 16.3226C2.27018 17.169 2.79227 17.9105 3.5026 18.4376C4.21293 18.9647 5.07389 19.2495 5.95842 19.25H6.41676C6.65987 19.25 6.89303 19.1534 7.06494 18.9815C7.23684 18.8096 7.33342 18.5764 7.33342 18.3333V11.9167C7.33342 11.6736 7.23684 11.4404 7.06494 11.2685C6.89303 11.0966 6.65987 11 6.41676 11H5.95842C5.80487 11.0062 5.65182 11.0215 5.50009 11.0458V10.0833C5.50009 8.62464 6.07955 7.2257 7.111 6.19425C8.14245 5.1628 9.5414 4.58333 11.0001 4.58333C12.4588 4.58333 13.8577 5.1628 14.8892 6.19425C15.9206 7.2257 16.5001 8.62464 16.5001 10.0833V11.0458C16.3484 11.0215 16.1953 11.0062 16.0418 11H15.5834C15.3403 11 15.1071 11.0966 14.9352 11.2685C14.7633 11.4404 14.6668 11.6736 14.6668 11.9167V18.3333C14.6668 18.5764 14.7633 18.8096 14.9352 18.9815C15.1071 19.1534 15.3403 19.25 15.5834 19.25H16.0418C16.9263 19.2495 17.7872 18.9647 18.4976 18.4376C19.2079 17.9105 19.73 17.169 19.9868 16.3226C20.2436 15.4762 20.2215 14.5696 19.9238 13.7367C19.6261 12.9037 19.0686 12.1886 18.3334 11.6967ZM3.66676 15.125C3.66665 14.5967 3.84907 14.0846 4.18316 13.6753C4.51724 13.2661 4.98246 12.9848 5.50009 12.8792V17.4167C4.97467 17.3095 4.50345 17.0215 4.16847 16.6028C3.83348 16.1841 3.65594 15.6611 3.66676 15.125ZM16.5001 17.4167V12.925C17.0181 13.0302 17.4839 13.3113 17.8184 13.7205C18.153 14.1298 18.3357 14.6422 18.3357 15.1708C18.3357 15.6995 18.153 16.2118 17.8184 16.6211C17.4839 17.0304 17.0181 17.3115 16.5001 17.4167Z" fill="#8F9BBA"/>
</svg>
